<svg xmlns="http://www.w3.org/2000/svg" viewBox="0 0 64 64">
  <rect width="64" height="64" rx="12" fill="#d2fa00"/>
  <g transform="translate(10 12) scale(1.166)">
    <path fill="#0d0d0d" d="M14.28,21.78l-6.2,10.73-3.4-5.9,7.26-12.58c.69-1.19.69-2.66,0-3.86l-.95-1.65L2.61,23.04l-1.93-3.34c-.91-1.58-.91-3.52,0-5.1L8.08,1.79l6.2,10.73c1.65,2.86,1.65,6.39,0,9.26Z"/>
    <path fill="#0d0d0d" d="M37.77,15.35h-12.38c-3.31,0-6.36-1.76-8.01-4.63L11.18,0h6.79l7.27,12.58c.69,1.19,1.96,1.93,3.34,1.93h1.9L22.09,0h3.86c1.82,0,3.5.97,4.41,2.55l7.39,12.8Z"/>
    <path fill="#0d0d0d" d="M37.78,18.95l-3.39,5.87h-14.53c-1.38,0-2.65.74-3.34,1.93l-.97,1.68h16.75l-1.92,3.32c-.91,1.58-2.59,2.55-4.41,2.55h-14.79l6.19-10.72c1.65-2.86,4.71-4.63,8.01-4.63h12.4Z"/>
  </g>
</svg>
