<?xml version="1.0" encoding="UTF-8"?>
<svg id="katman_2" data-name="katman 2" xmlns="http://www.w3.org/2000/svg" viewBox="0 0 155.03 34.3">
  <defs>
    <style>
      .cls-1 {
        fill: #0d0d0d;
      }
    </style>
  </defs>
  <g id="Layer_1" data-name="Layer 1">
    <g>
      <path class="cls-1" d="M14.28,21.78l-6.2,10.73-3.4-5.9,7.26-12.58c.69-1.19.69-2.66,0-3.86l-.95-1.65L2.61,23.04l-1.93-3.34c-.91-1.58-.91-3.52,0-5.1L8.08,1.79l6.2,10.73c1.65,2.86,1.65,6.39,0,9.26Z"/>
      <path class="cls-1" d="M37.77,15.35h-12.38c-3.31,0-6.36-1.76-8.01-4.63L11.18,0h6.79l7.27,12.58c.69,1.19,1.96,1.93,3.34,1.93h1.9L22.09,0h3.86c1.82,0,3.5.97,4.41,2.55l7.39,12.8Z"/>
      <path class="cls-1" d="M37.78,18.95l-3.39,5.87h-14.53c-1.38,0-2.65.74-3.34,1.93l-.97,1.68h16.75l-1.92,3.32c-.91,1.58-2.59,2.55-4.41,2.55h-14.79l6.19-10.72c1.65-2.86,4.71-4.63,8.01-4.63h12.4Z"/>
      <path class="cls-1" d="M57.29,16.31v7.54h-3.74v-7.54c0-1.73-1.4-3.13-3.13-3.13h0c-1.73,0-3.13,1.4-3.13,3.13v7.54h-3.74v-7.54c0-3.79,3.07-6.87,6.87-6.87h0c3.79,0,6.87,3.07,6.87,6.87Z"/>
      <path class="cls-1" d="M67.29,16.31v7.54h-3.74v-7.54c0-1.73-1.4-3.13-3.13-3.13h0c-1.73,0-3.13,1.4-3.13,3.13v7.54h-3.74v-7.54c0-3.79,3.07-6.87,6.87-6.87h0c3.79,0,6.87,3.07,6.87,6.87Z"/>
      <path class="cls-1" d="M139.79,9.44v3.74c-.87,0-1.65.35-2.22.91-.57.57-.91,1.35-.91,2.21v7.54h-3.74v-7.54c0-3.8,3.07-6.87,6.87-6.87Z"/>
      <path class="cls-1" d="M79.19,18.73h4.03c-.84,3.15-3.72,5.46-7.12,5.46-4.07,0-7.37-3.3-7.37-7.37s3.3-7.37,7.37-7.37c3.44,0,6.33,2.36,7.15,5.55h-4.01c-.63-1.08-1.8-1.81-3.14-1.81-2.01,0-3.63,1.63-3.63,3.63s1.63,3.63,3.63,3.63c1.3,0,2.45-.68,3.09-1.72Z"/>
      <path class="cls-1" d="M111.65,18.73h4.03c-.84,3.15-3.72,5.46-7.12,5.46-4.07,0-7.37-3.3-7.37-7.37s3.3-7.37,7.37-7.37c3.44,0,6.33,2.36,7.15,5.55h-4.01c-.63-1.08-1.8-1.81-3.14-1.81-2.01,0-3.63,1.63-3.63,3.63s1.63,3.63,3.63,3.63c1.3,0,2.45-.68,3.09-1.72Z"/>
      <path class="cls-1" d="M84.61,16.64h0c0,3.98,3.23,7.2,7.2,7.2h.47c3.98,0,7.2-3.23,7.2-7.2h0c0-3.98-3.23-7.2-7.2-7.2h-.47c-3.98,0-7.2,3.23-7.2,7.2ZM88.35,16.63h0c0-1.91,1.55-3.46,3.46-3.46h.49c1.91,0,3.46,1.55,3.46,3.46h0c0,1.91-1.55,3.46-3.46,3.46h-.49c-1.91,0-3.46-1.55-3.46-3.46Z"/>
      <rect class="cls-1" x="84.61" y="16.63" width="3.74" height="11.22"/>
      <path class="cls-1" d="M124.12,9.41c-4.09,0-7.4,3.31-7.4,7.4s3.31,7.4,7.4,7.4,7.4-3.31,7.4-7.4-3.32-7.4-7.4-7.4ZM124.12,20.45c-2.01,0-3.63-1.63-3.63-3.63s1.63-3.63,3.63-3.63,3.63,1.63,3.63,3.63-1.63,3.63-3.63,3.63Z"/>
      <g>
        <path class="cls-1" d="M155.03,16.81c0,.53-.05,1.04-.16,1.53h-12.74v-2.91h12.56c.22.69.34.6.34,1.37Z"/>
        <path class="cls-1" d="M154.87,18.35c.11-.49.16-1.01.16-1.53,0-.77-.12-1.51-.34-2.2-.94-3.01-3.75-5.19-7.06-5.19-4.09,0-7.4,3.31-7.4,7.4s3.31,7.4,7.4,7.4c2.02,0,3.85-.81,5.19-2.12l-3.35-2.15c-.54.32-1.16.51-1.84.51-1.46,0-2.72-.86-3.29-2.1-.22-.47-.34-.99-.34-1.53,0-.84.28-1.6.75-2.2.66-.87,1.7-1.43,2.88-1.43s2.22.56,2.88,1.43c.47.61.75,1.37.75,2.2,0,.55-.12,1.07-.34,1.53h3.95Z"/>
      </g>
    </g>
  </g>
</svg>
